<svg xmlns="http://www.w3.org/2000/svg" xmlns:xlink="http://www.w3.org/1999/xlink" width="171" height="114" viewBox="0 0 171 114">
    <defs>
        <path id="a" d="M.55.679h23.027v25.53H.55z"/>
        <path id="c" d="M.955.179h20.631v25.613H.956z"/>
        <path id="e" d="M.006.645h45.539v57.238H.005z"/>
    </defs>
    <g fill="none" fill-rule="evenodd">
        <path fill="#1C1C1A" d="M15 88.873l.121 24.642 12.69-.063-.006-1.408-11.072.057-.052-10.545 10.519-.052-.007-1.408-10.52.053-.05-9.878 10.963-.055-.006-1.405z"/>
        <g transform="translate(30.326 87.613)">
            <mask id="b" fill="#fff">
                <use xlink:href="#a"/>
            </mask>
            <path fill="#1C1C1A" d="M21.958 13.395c-.008-1.554-.242-3.016-.702-4.382-.461-1.367-1.122-2.565-1.986-3.597a9.42 9.42 0 0 0-3.14-2.446c-1.228-.597-2.603-.893-4.123-.885-1.52.008-2.892.316-4.115.928a9.365 9.365 0 0 0-3.115 2.476c-.853 1.04-1.502 2.245-1.95 3.617-.447 1.37-.666 2.835-.658 4.387.007 1.554.24 3.016.702 4.382.461 1.367 1.122 2.565 1.986 3.596a9.415 9.415 0 0 0 3.139 2.445c1.227.599 2.604.893 4.124.885 1.52-.006 2.892-.316 4.115-.926a9.435 9.435 0 0 0 3.114-2.476c.852-1.04 1.502-2.246 1.95-3.617.446-1.372.667-2.833.659-4.387m1.618-.01a15.11 15.11 0 0 1-.75 4.833c-.506 1.545-1.253 2.907-2.241 4.081a11.164 11.164 0 0 1-3.608 2.83c-1.42.71-3.035 1.07-4.85 1.08-1.815.008-3.435-.335-4.86-1.03a11.174 11.174 0 0 1-3.638-2.795c-.997-1.165-1.76-2.519-2.282-4.058a15.116 15.116 0 0 1-.797-4.825c-.009-1.677.241-3.287.75-4.832.507-1.543 1.253-2.904 2.24-4.082a11.208 11.208 0 0 1 3.61-2.829C8.569 1.048 10.184.688 12 .68c1.815-.01 3.434.334 4.86 1.03a11.207 11.207 0 0 1 3.637 2.793c1 1.167 1.76 2.52 2.282 4.06.524 1.538.79 3.146.797 4.823" mask="url(#b)"/>
        </g>
        <path fill="#1C1C1A" d="M71.222 107.056a6.244 6.244 0 0 1-.557 2.665 6.278 6.278 0 0 1-1.589 2.117c-.685.595-1.505 1.056-2.46 1.381-.953.326-2.008.49-3.16.497a16.623 16.623 0 0 1-3.478-.37c-1.215-.253-2.265-.588-3.15-1.002l.398-1.372c1.007.439 2.003.773 2.984 1.002.982.23 2.038.342 3.166.336 1.913-.01 3.43-.478 4.554-1.41 1.123-.929 1.68-2.196 1.672-3.8-.003-.863-.18-1.603-.525-2.216a6.174 6.174 0 0 0-1.35-1.642 9.748 9.748 0 0 0-1.902-1.266 87.73 87.73 0 0 0-2.213-1.1c-.909-.439-1.75-.872-2.526-1.3a9.519 9.519 0 0 1-1.992-1.433 5.854 5.854 0 0 1-1.297-1.788c-.31-.664-.467-1.454-.472-2.366-.004-.986.181-1.844.558-2.575a5.143 5.143 0 0 1 1.518-1.8 6.803 6.803 0 0 1 2.202-1.068 9.643 9.643 0 0 1 2.61-.363 13.573 13.573 0 0 1 3.183.353c1.018.243 1.934.57 2.745.986l-.36 1.408a16.116 16.116 0 0 0-2.71-.987c-.92-.24-1.846-.359-2.778-.354-1.545.007-2.825.365-3.838 1.073-1.015.707-1.519 1.79-1.513 3.245.005.717.112 1.326.324 1.83.21.504.525.959.944 1.364.418.406.942.793 1.57 1.158.626.367 1.37.745 2.23 1.136.787.367 1.604.776 2.453 1.227.847.452 1.623.98 2.325 1.58a8.05 8.05 0 0 1 1.74 2.08c.456.788.687 1.713.694 2.774M82.06 89.944l.116 23.234-1.619.008-.116-23.234-7.576.037-.006-1.406 16.771-.084.006 1.406zM134.515 90.198a12.99 12.99 0 0 0-2.745-.727 18.57 18.57 0 0 0-2.85-.207c-1.668.008-3.17.28-4.503.819-1.334.536-2.463 1.3-3.392 2.29-.926.993-1.63 2.193-2.115 3.6-.484 1.41-.72 2.977-.711 4.704.007 1.751.259 3.322.758 4.713.497 1.392 1.214 2.578 2.15 3.56.937.983 2.074 1.734 3.414 2.258 1.34.524 2.843.782 4.51.773a18.357 18.357 0 0 0 2.85-.236 13.049 13.049 0 0 0 2.737-.754l.302 1.332c-.785.348-1.71.612-2.774.79-1.067.178-2.138.269-3.219.275-1.936.01-3.666-.296-5.19-.919-1.523-.62-2.815-1.489-3.875-2.605-1.06-1.118-1.87-2.458-2.43-4.022-.559-1.562-.842-3.281-.853-5.157-.01-1.873.259-3.59.801-5.146.546-1.557 1.341-2.906 2.391-4.046 1.047-1.139 2.331-2.028 3.85-2.665 1.516-.637 3.243-.96 5.179-.97 1.08-.005 2.153.076 3.221.244 1.067.168 1.994.42 2.78.763l-.286 1.333zM140.707 100.267l11.38-12.082 2.17-.01-11.6 12.231 12.714 12.406-2.207.01-12.456-12.259.06 12.321-1.618.008-.121-24.64 1.618-.01z"/>
        <g transform="translate(93.163 87.613)">
            <mask id="d" fill="#fff">
                <use xlink:href="#c"/>
            </mask>
            <path fill="#1C1C1A" d="M1.702 22.04a10.143 10.143 0 0 0 2.777 1.56c1.336.499 2.872.758 4.566.77 1.685-.012 3.221-.271 4.556-.77 1.389-.522 2.58-1.277 3.542-2.244.967-.97 1.716-2.161 2.23-3.538.52-1.393.79-3.001.8-4.777.009-1.753-.244-3.357-.751-4.766-.501-1.398-1.239-2.602-2.192-3.578-.953-.977-2.14-1.742-3.519-2.277-1.37-.527-2.944-.805-4.677-.82-1.721.015-3.295.293-4.665.82l-.506-1.326C5.39.505 7.13.197 9.033.18c1.917.018 3.656.326 5.184.915 1.571.608 2.924 1.483 4.022 2.607 1.097 1.124 1.941 2.5 2.512 4.092.562 1.565.843 3.333.835 5.255-.01 1.946-.311 3.719-.889 5.268-.585 1.57-1.445 2.93-2.555 4.046-1.106 1.111-2.469 1.976-4.048 2.568-1.49.558-3.189.848-5.05.862-1.87-.014-3.567-.304-5.059-.862a11.595 11.595 0 0 1-3.03-1.671" mask="url(#d)"/>
        </g>
        <path fill="#1C1C1A" d="M94.01 102.476h-2.634v-3.273h2.634l1.143 1.15v.973l-1.143 1.15M109.079 91.32c0-1.57-1.25-2.326-1.911-2.506l-.333 1.233c.04.013.975.276.975 1.272 0 .33-.086.572-.258.737-.294.285-.816.31-.993.318v.001H93.505l-1.076 1.278h14.193c.003 0 .006-.003.01-.003.336-.003 1.169-.072 1.788-.661.302-.284.659-.805.659-1.67"/>
        <g>
            <path fill="#B11E4B" d="M60 26.176v7.312h5.814l2.524-2.57v-2.173l-2.524-2.569z"/>
            <path fill="#FAC46F" d="M99.077 8.557c0-3.509-2.76-5.197-4.22-5.601l-.735 2.76c.088.024 2.152.618 2.152 2.84 0 .74-.188 1.28-.566 1.647-.653.636-1.804.693-2.193.711v.002H64.696l-2.375 2.855h31.332c.007 0 .013-.003.02-.003.743-.008 2.582-.164 3.95-1.477.664-.636 1.454-1.802 1.454-3.734"/>
            <g transform="translate(66.047 .029)">
                <mask id="f" fill="#fff">
                    <use xlink:href="#e"/>
                </mask>
                <path fill="#50358A" d="M.006 52.223c1.967 1.54 4.207 2.793 6.69 3.737 3.291 1.247 7.041 1.895 11.168 1.923 4.106-.028 7.856-.676 11.146-1.923 3.485-1.324 6.492-3.255 8.933-5.74 2.451-2.492 4.348-5.534 5.64-9.04 1.278-3.462 1.94-7.424 1.962-11.773.02-4.296-.602-8.247-1.843-11.744-1.26-3.557-3.122-6.634-5.544-9.146-2.42-2.509-5.408-4.468-8.877-5.824C25.908 1.375 22.07.685 17.84.645c-4.203.04-8.041.73-11.415 2.048l1.116 2.963c3.023-1.181 6.499-1.798 10.299-1.835 3.826.037 7.3.654 10.323 1.835 3.047 1.194 5.664 2.904 7.768 5.086 2.104 2.184 3.733 4.874 4.836 7.998 1.12 3.148 1.678 6.732 1.658 10.65-.022 3.97-.615 7.562-1.763 10.675-1.134 3.079-2.79 5.74-4.924 7.907-2.123 2.162-4.753 3.848-7.819 5.013-2.947 1.117-6.337 1.697-10.056 1.723-3.74-.026-7.13-.606-10.076-1.723-2.3-.873-4.354-2.04-6.134-3.481L.006 52.223z" mask="url(#f)"/>
            </g>
        </g>
        <g>
            <path fill="#BDB7C4" fill-rule="nonzero" d="M146.5 68h17a7.5 7.5 0 0 1 7.5 7.5v1a7.5 7.5 0 0 1-7.5 7.5H139v-8.5a7.5 7.5 0 0 1 7.5-7.5z"/>
            <text fill="#FFF" font-family="AppleSDGothicNeo-Bold, Apple SD Gothic Neo" font-size="9" font-weight="bold" transform="translate(139 68)">
                <tspan x="5.128" y="11">BETA</tspan>
            </text>
        </g>
    </g>
</svg>
