<svg xmlns="http://www.w3.org/2000/svg" width="171" height="114" viewBox="0 0 171 114">
    <g fill="none" fill-rule="evenodd">
        <path fill="#000" fill-rule="nonzero" d="M25 112.821v-23.65h12.33v1.349H26.586V100h10.31v1.35h-10.31v10.12h10.852v1.35H25zm38.971-11.825c0 1.61-.252 3.154-.757 4.634a11.645 11.645 0 0 1-2.217 3.906 10.938 10.938 0 0 1-3.55 2.7c-1.395.674-2.981 1.011-4.76 1.011-1.778 0-3.364-.337-4.758-1.012a10.938 10.938 0 0 1-3.551-2.699 11.645 11.645 0 0 1-2.218-3.906 14.255 14.255 0 0 1-.757-4.634c0-1.61.253-3.155.757-4.634a11.645 11.645 0 0 1 2.218-3.907 10.938 10.938 0 0 1 3.55-2.699c1.395-.674 2.98-1.012 4.76-1.012 1.778 0 3.364.338 4.758 1.012a10.938 10.938 0 0 1 3.551 2.7 11.645 11.645 0 0 1 2.217 3.906c.505 1.48.757 3.024.757 4.634zm-1.586 0c0-1.492-.222-2.894-.667-4.208-.444-1.314-1.087-2.468-1.929-3.463a9.203 9.203 0 0 0-3.064-2.361c-1.202-.58-2.548-.87-4.038-.87-1.49 0-2.836.29-4.037.87a9.203 9.203 0 0 0-3.065 2.361c-.841.995-1.484 2.149-1.928 3.463-.445 1.314-.667 2.716-.667 4.208 0 1.491.222 2.894.667 4.208.444 1.314 1.087 2.468 1.928 3.462a9.203 9.203 0 0 0 3.065 2.362c1.201.58 2.547.87 4.037.87 1.49 0 2.836-.29 4.038-.87a9.203 9.203 0 0 0 3.064-2.362c.842-.994 1.485-2.148 1.93-3.462.444-1.314.666-2.717.666-4.208zm19.432 5.895c0 .923-.187 1.775-.56 2.557a6.008 6.008 0 0 1-1.567 2.024c-.673.568-1.478 1.006-2.416 1.314-.937.307-1.97.461-3.1.461-1.082 0-2.217-.124-3.407-.372-1.19-.25-2.217-.575-3.082-.977l.396-1.314c.986.426 1.959.752 2.92.977.962.224 1.995.337 3.1.337 1.875 0 3.366-.444 4.471-1.332 1.106-.888 1.658-2.1 1.658-3.64 0-.828-.168-1.539-.504-2.13a5.91 5.91 0 0 0-1.316-1.58 9.454 9.454 0 0 0-1.857-1.226 91.235 91.235 0 0 0-2.163-1.065 51.659 51.659 0 0 1-2.47-1.26 9.418 9.418 0 0 1-1.946-1.386 5.66 5.66 0 0 1-1.262-1.722c-.3-.64-.45-1.397-.45-2.273 0-.947.186-1.77.558-2.468a4.973 4.973 0 0 1 1.496-1.722 6.715 6.715 0 0 1 2.163-1.012 9.603 9.603 0 0 1 2.56-.338c1.082 0 2.121.119 3.119.355.997.237 1.892.557 2.685.96l-.36 1.349a15.777 15.777 0 0 0-2.65-.96 10.672 10.672 0 0 0-2.722-.354c-1.514 0-2.77.337-3.767 1.012-.998.675-1.496 1.71-1.496 3.107 0 .687.102 1.273.306 1.758.204.485.51.923.92 1.314.408.39.919.763 1.532 1.118.613.356 1.34.723 2.18 1.101.77.355 1.569.752 2.398 1.19.83.438 1.586.947 2.271 1.527a7.765 7.765 0 0 1 1.695 2.006c.444.758.667 1.646.667 2.664zm13.483 5.646c-.36.142-.83.272-1.406.39a8.416 8.416 0 0 1-1.695.178c-.865 0-1.586-.142-2.163-.426a3.604 3.604 0 0 1-1.388-1.172c-.348-.497-.6-1.1-.757-1.81a10.92 10.92 0 0 1-.234-2.345v-10.05h-3.136V95.99h3.136v-4.333h1.586v4.333h6.02v1.314h-6.02v9.978c0 1.492.205 2.616.613 3.374.409.758 1.238 1.136 2.488 1.136.504 0 .98-.041 1.424-.124a8.56 8.56 0 0 0 1.352-.373l.18 1.243zm18.098-8.132c0 1.136-.163 2.231-.487 3.285a8.469 8.469 0 0 1-1.46 2.805 7.117 7.117 0 0 1-2.434 1.953c-.973.486-2.097.728-3.37.728-1.274 0-2.398-.242-3.371-.728a7.117 7.117 0 0 1-2.434-1.953 8.469 8.469 0 0 1-1.46-2.805 11.096 11.096 0 0 1-.486-3.285c0-1.136.162-2.231.486-3.285a8.469 8.469 0 0 1 1.46-2.805 7.117 7.117 0 0 1 2.434-1.953c.973-.486 2.097-.728 3.37-.728 1.274 0 2.398.242 3.371.728a7.117 7.117 0 0 1 2.434 1.953 8.469 8.469 0 0 1 1.46 2.805c.324 1.054.487 2.149.487 3.285zm-1.587 0a10.34 10.34 0 0 0-.396-2.894c-.265-.912-.655-1.699-1.172-2.362a5.662 5.662 0 0 0-1.929-1.58c-.769-.39-1.658-.586-2.667-.586-1.01 0-1.9.195-2.668.586-.77.39-1.412.917-1.929 1.58-.517.663-.907 1.45-1.172 2.362a10.34 10.34 0 0 0-.396 2.894c0 1.042.132 2.012.396 2.912.265.9.655 1.68 1.172 2.344a5.662 5.662 0 0 0 1.929 1.58c.769.39 1.658.586 2.668.586 1.009 0 1.898-.195 2.667-.586a5.662 5.662 0 0 0 1.93-1.58c.516-.663.906-1.444 1.17-2.344.265-.9.397-1.87.397-2.912zm12.69-8.771c.673 0 1.43.082 2.272.248.84.166 1.562.403 2.163.71l-.289 1.279c-1.322-.592-2.668-.888-4.037-.888-1.13 0-2.11.178-2.939.533a5.291 5.291 0 0 0-2.055 1.527c-.54.663-.943 1.45-1.207 2.361-.265.912-.397 1.912-.397 3 0 1.114.132 2.12.397 3.02.264.9.667 1.68 1.207 2.343a5.291 5.291 0 0 0 2.055 1.527c.83.355 1.809.533 2.939.533 1.37 0 2.715-.296 4.037-.888l.289 1.279c-.601.307-1.322.544-2.163.71-.842.165-1.599.248-2.272.248-1.394 0-2.595-.23-3.605-.692-1.01-.462-1.844-1.095-2.505-1.9a8.097 8.097 0 0 1-1.478-2.788 11.465 11.465 0 0 1-.487-3.391c0-1.207.162-2.338.487-3.391a8.097 8.097 0 0 1 1.478-2.788c.66-.805 1.496-1.438 2.505-1.9 1.01-.462 2.211-.692 3.605-.692zm10.455 8.416l8.04-8.061h1.982l-8.147 8.203 9.157 8.63h-2.055l-8.977-8.488v8.487h-1.586V87.75h1.586v16.3z"/>
        <path fill="#EC8E56" d="M95.076 36.99v10.93l-9.287 5.463v-10.93z"/>
        <path fill="#1D1C1A" d="M76.5 36.989l-9.29-5.465V20.598l9.29 5.465z"/>
        <path fill="#F1AF5C" d="M85.788 42.453v10.93l-9.29-5.464v10.927l-9.29-5.463v-10.93L57.92 36.99V26.063L76.501 36.99z"/>
        <path fill="#FAC46F" d="M85.788 31.527v.003l-9.285 5.462H76.5l-9.289-5.465-9.293-5.465 9.293-5.466.008.004 9.28 5.462.008.003z"/>
        <path fill="#DA834F" d="M85.788 53.383l-9.29 5.463V47.92z"/>
        <path fill="#1D1C1A" d="M85.79 20.606l9.29-5.466 9.288 5.463-9.29 5.465z"/>
        <path fill="#B43C54" d="M76.5 36.994l-9.29-5.465V20.603l9.29 5.465z"/>
        <path fill="#B11E4B" d="M95.08 4.21l-9.29 5.465L76.5 4.21l-9.29 5.465 9.289 5.464-9.289 5.464 9.29 5.465 9.288-5.463 18.58-10.931z"/>
        <path fill="#951A3E" d="M104.37 20.604h-.004l-3.398 1.999-5.89 3.462-.004.004-9.285 5.461-9.285 5.462-.004.004V26.07l.007-.004 9.282-5.461 9.292-5.465 9.285-5.466z"/>
        <path fill="#B64E5B" d="M67.21 20.603V9.675l9.29 5.464z"/>
        <path fill="#472F75" d="M85.79 20.6l9.29-5.464 9.288 5.462-9.29 5.465z"/>
        <path fill="#402559" d="M113.657 26.063V36.99l-9.289 5.466v10.927l-9.29 5.463-.002-10.927V36.99l.002-10.927 9.29-5.464v10.927z"/>
        <path fill="#FAC46F" d="M95.076 36.99l-9.287-5.464v.004l-9.285 5.462 9.285 5.461z"/>
        <path fill="#50358A" d="M95.078 26.063v32.783l-9.29-5.463 9.287-5.464V36.99l-9.286-5.464V20.599z"/>
        <path fill="#452E6E" d="M104.368 20.598l9.289 5.465-9.288 5.464z"/>
    </g>
</svg>
