<svg xmlns="http://www.w3.org/2000/svg" width="105" height="30" viewBox="0 0 105 30">
    <g fill="none" fill-rule="evenodd">
        <path fill="#EC8E56" d="M18.73 17.739v5.241l-4.692 2.62V20.36z"/>
        <path fill="#1D1C1A" d="M9.346 17.738l-4.693-2.62v-5.24l4.693 2.62z"/>
        <path fill="#F1AF5C" d="M14.038 20.359V25.6l-4.693-2.62v5.24L4.652 25.6V20.36l-4.693-2.62v-5.24l9.387 5.24z"/>
        <path fill="#FAC46F" d="M14.038 15.119v.002l-4.69 2.619h-.002l-4.693-2.621-4.694-2.62 4.694-2.622.004.002 4.689 2.62h.003z"/>
        <path fill="#DA834F" d="M14.038 25.6l-4.693 2.62v-5.24z"/>
        <path fill="#1D1C1A" d="M14.038 9.882l4.694-2.621 4.692 2.62-4.694 2.62z"/>
        <path fill="#B43C54" d="M9.346 17.74l-4.693-2.62V9.88l4.693 2.621z"/>
        <path fill="#B11E4B" d="M18.731 2.019l-4.692 2.62-4.693-2.62-4.693 2.62 4.692 2.62L4.653 9.88l4.693 2.621 4.692-2.62 9.385-5.242z"/>
        <path fill="#951A3E" d="M23.425 9.88h-.002l-1.717.96-2.976 1.66-.001.002-4.69 2.619-4.691 2.619-.002.002v-5.24l.003-.002 4.69-2.62 4.693-2.62 4.69-2.621z"/>
        <path fill="#B64E5B" d="M4.653 9.88V4.64l4.692 2.62z"/>
        <path fill="#472F75" d="M14.038 9.879l4.694-2.62 4.692 2.62-4.694 2.62z"/>
        <path fill="#402559" d="M28.117 12.499v5.24l-4.693 2.621v5.24l-4.693 2.62-.001-5.24V12.499l4.694-2.62v5.24z"/>
        <path fill="#FAC46F" d="M18.73 17.739l-4.692-2.62v.002l-4.69 2.619 4.69 2.619z"/>
        <path fill="#50358A" d="M18.73 12.499V28.22l-4.692-2.62 4.691-2.62v-5.241l-4.691-2.62v-5.24z"/>
        <path fill="#452E6E" d="M23.424 9.878l4.692 2.62-4.692 2.62z"/>
        <g fill="#000" fill-rule="nonzero">
            <path d="M37 21.453V8.215h6.938v.755h-6.045v5.307h5.801v.756h-5.801v5.664h6.106v.756H37zm21.93-6.62a7.94 7.94 0 0 1-.427 2.595 6.51 6.51 0 0 1-1.247 2.186 6.152 6.152 0 0 1-1.998 1.51c-.785.378-1.677.567-2.678.567s-1.894-.189-2.678-.566a6.152 6.152 0 0 1-1.998-1.51 6.51 6.51 0 0 1-1.248-2.187 7.94 7.94 0 0 1-.426-2.594c0-.901.142-1.766.426-2.594a6.51 6.51 0 0 1 1.248-2.187 6.152 6.152 0 0 1 1.998-1.51c.784-.378 1.677-.567 2.678-.567 1 0 1.893.19 2.678.567.784.377 1.45.881 1.998 1.51a6.51 6.51 0 0 1 1.247 2.187 7.94 7.94 0 0 1 .426 2.594zm-.893 0c0-.834-.125-1.62-.376-2.355a5.881 5.881 0 0 0-1.085-1.938 5.175 5.175 0 0 0-1.724-1.321c-.676-.325-1.434-.487-2.272-.487-.839 0-1.596.162-2.272.487a5.175 5.175 0 0 0-1.725 1.321 5.881 5.881 0 0 0-1.085 1.938 7.265 7.265 0 0 0-.375 2.356c0 .835.125 1.62.375 2.355.25.736.612 1.382 1.085 1.938a5.175 5.175 0 0 0 1.725 1.322c.676.325 1.433.487 2.272.487.838 0 1.596-.162 2.272-.487a5.175 5.175 0 0 0 1.724-1.322 5.881 5.881 0 0 0 1.085-1.938c.25-.735.376-1.52.376-2.355zm10.934 3.3c0 .517-.105.994-.314 1.431-.21.438-.504.815-.883 1.133a4.034 4.034 0 0 1-1.36.736 5.595 5.595 0 0 1-1.744.258c-.608 0-1.247-.07-1.917-.208a8.04 8.04 0 0 1-1.734-.547l.223-.736c.554.239 1.102.421 1.643.547a7.685 7.685 0 0 0 1.745.189c1.055 0 1.893-.249 2.515-.745.622-.497.933-1.176.933-2.038 0-.464-.094-.861-.284-1.192a3.312 3.312 0 0 0-.74-.885 5.322 5.322 0 0 0-1.045-.686 51.452 51.452 0 0 0-1.217-.596c-.5-.239-.964-.474-1.39-.706a5.3 5.3 0 0 1-1.095-.775 3.17 3.17 0 0 1-.71-.964c-.17-.358-.254-.782-.254-1.272 0-.53.105-.99.315-1.381.21-.391.49-.713.842-.964.351-.252.757-.441 1.217-.567a5.43 5.43 0 0 1 1.44-.189c.609 0 1.194.067 1.755.2a6.826 6.826 0 0 1 1.511.536l-.203.755a8.908 8.908 0 0 0-1.49-.537 6.035 6.035 0 0 0-1.532-.198c-.852 0-1.559.188-2.12.566-.561.378-.842.957-.842 1.74 0 .384.057.712.172.983.115.272.288.517.518.736.23.218.517.427.862.626s.754.404 1.227.616c.433.199.883.42 1.35.666.466.245.892.53 1.277.855.386.324.703.699.954 1.123.25.424.375.92.375 1.49zm7.587 3.16c-.203.08-.467.153-.791.22a4.76 4.76 0 0 1-.954.099c-.486 0-.892-.08-1.217-.239a2.025 2.025 0 0 1-.78-.656 2.783 2.783 0 0 1-.427-1.013 6.081 6.081 0 0 1-.132-1.312v-5.625h-1.765v-.736h1.765V9.606h.893v2.425h3.388v.736H73.15v5.585c0 .835.115 1.464.345 1.888.23.424.696.636 1.4.636a4.395 4.395 0 0 0 1.562-.278l.101.696zm10.184-4.551a6.18 6.18 0 0 1-.274 1.839 4.731 4.731 0 0 1-.822 1.57 4.001 4.001 0 0 1-1.37 1.093c-.547.272-1.18.407-1.896.407-.717 0-1.349-.135-1.897-.407a4.001 4.001 0 0 1-1.369-1.093 4.731 4.731 0 0 1-.822-1.57 6.18 6.18 0 0 1-.273-1.84c0-.635.09-1.248.273-1.838.183-.59.457-1.113.822-1.57a4.001 4.001 0 0 1 1.37-1.093c.547-.272 1.18-.408 1.896-.408.717 0 1.35.136 1.897.408a4.001 4.001 0 0 1 1.37 1.093c.364.457.638.98.82 1.57a6.18 6.18 0 0 1 .275 1.839zm-.893 0c0-.57-.074-1.11-.223-1.62a3.876 3.876 0 0 0-.66-1.322 3.183 3.183 0 0 0-1.085-.884c-.432-.219-.933-.328-1.5-.328-.569 0-1.07.109-1.502.328a3.183 3.183 0 0 0-1.085.884c-.291.371-.51.812-.66 1.322a5.76 5.76 0 0 0-.223 1.62c0 .583.075 1.126.223 1.63.15.503.369.94.66 1.312.29.37.652.666 1.085.884.433.219.933.328 1.501.328.568 0 1.069-.11 1.501-.328a3.183 3.183 0 0 0 1.086-.884c.29-.371.51-.809.659-1.312a5.729 5.729 0 0 0 .223-1.63zm7.14-4.91c.38 0 .805.047 1.279.14.473.092.879.225 1.217.397l-.162.716a5.534 5.534 0 0 0-2.272-.497c-.636 0-1.187.1-1.654.298a2.976 2.976 0 0 0-1.156.855c-.304.37-.53.811-.68 1.321a5.983 5.983 0 0 0-.223 1.68c0 .623.075 1.186.223 1.69.15.503.376.94.68 1.311.304.371.69.656 1.156.855.467.199 1.018.298 1.654.298.77 0 1.528-.165 2.272-.497l.162.716a4.654 4.654 0 0 1-1.217.397c-.474.093-.9.14-1.278.14-.785 0-1.46-.13-2.029-.388a3.879 3.879 0 0 1-1.41-1.064c-.372-.45-.649-.97-.831-1.56a6.385 6.385 0 0 1-.274-1.898c0-.676.091-1.309.274-1.898.182-.59.46-1.11.831-1.56.372-.451.842-.806 1.41-1.064s1.244-.388 2.029-.388zm5.884 4.711l4.524-4.512h1.115l-4.584 4.592 5.152 4.83h-1.156l-5.051-4.75v4.75h-.893V7.42h.893v9.123z"/>
        </g>
    </g>
</svg>
