<svg xmlns="http://www.w3.org/2000/svg" xmlns:xlink="http://www.w3.org/1999/xlink" width="169" height="33" viewBox="0 0 169 33">
    <defs>
        <path id="a" d="M1.173 1.368H9.61V16.21H1.173z"/>
    </defs>
    <g fill="none" fill-rule="evenodd">
        <path fill="#ED8E5B" d="M22.172 19.2v6.402L16.63 28.8v-6.402z"/>
        <path fill="#231F20" d="M11.089 19.197L5.545 16 5.542 9.6l5.547 3.198z"/>
        <path fill="#F1AA62" d="M0 19.2l5.544 3.2v6.4l5.541 3.2v-6.399l5.544 3.198V22.4l-5.541-3.2L0 12.796z"/>
        <path fill="#FCC071" d="M0 12.798l5.547 3.198 5.541 3.204 5.541-3.201v-.003L11.091 12.8l-.003-.003L5.55 9.6l-.003-.003z"/>
        <path fill="#D78153" d="M11.086 32l5.544-3.198-5.544-3.2z"/>
        <path fill="#231F20" d="M16.632 9.602l5.544-3.198 5.54 3.198-5.543 3.198z"/>
        <path fill="#B04158" d="M11.089 19.2l-5.544-3.198-.003-6.399 5.547 3.198z"/>
        <path fill="#AE164F" d="M22.175 0l-5.544 3.2-5.54-3.2-5.545 3.2 5.541 3.202-5.544 3.2 5.547 3.199 5.538-3.198L27.72 3.2z"/>
        <path fill="#90093F" d="M27.718 9.602h-.003l-2.028 1.17L22.17 12.8l-5.541 3.201-5.541 3.198v.003V12.8h.003l5.538-3.198 5.544-3.2 5.54-3.202z"/>
        <path fill="#B0515D" d="M5.543 9.602L5.546 3.2l5.541 3.201z"/>
        <path fill="#45347B" d="M16.632 9.6l5.544-3.198 5.54 3.198-5.543 3.198z"/>
        <path fill="#3C235C" d="M22.175 12.798l-.003 6.402v6.402L22.175 32 27.72 28.8v-6.402L33.26 19.2v-6.402l-5.54 3.198V9.6z"/>
        <path fill="#FCC071" d="M22.172 19.2L16.628 16v.002L11.09 19.2l5.538 3.198z"/>
        <path fill="#4F3F98" d="M16.63 15.997l5.543 3.201V25.6l-5.544 3.201L22.176 32V12.8L16.63 9.601z"/>
        <path fill="#413073" d="M27.718 9.6l5.544 3.198-5.544 3.2z"/>
        <path fill="#231F20" d="M43.302 23.78h3.528V9.455h-3.528zM60.322 9.453v2.796H56.47v11.529h-3.528V12.249h-3.849V9.453zM65.46 18.207h3.682l-1.83-6.045-1.851 6.045zm4.582 2.799h-5.484l-.882 2.772H60.04l5.337-14.325h3.87l5.334 14.325h-3.633l-.906-2.772zM86.625 21.497h-3.399l-2.793-5.742-.432 8.025h-3.462l1.074-14.328h3.183l4.131 8.754 4.131-8.754h3.18l1.074 14.328H89.85l-.426-8.025zM107.804 10.898a9.155 9.155 0 0 0-1.788-.528 10.286 10.286 0 0 0-1.977-.183c-.975 0-1.87.159-2.676.486a5.993 5.993 0 0 0-2.088 1.365 6.172 6.172 0 0 0-1.356 2.118c-.321.825-.483 1.746-.483 2.763 0 1.005.15 1.908.45 2.709a5.501 5.501 0 0 0 1.314 2.046 5.732 5.732 0 0 0 2.085 1.28c.819.292 1.734.439 2.754.439.228 0 .495-.01.798-.033.297-.021.6-.048.903-.084.3-.036.59-.078.87-.13.279-.05.525-.11.744-.185v-5.073h.9v5.658a9.769 9.769 0 0 1-2.097.504c-.783.108-1.524.159-2.226.159-1.146 0-2.181-.174-3.096-.525a6.624 6.624 0 0 1-2.343-1.482 6.47 6.47 0 0 1-1.488-2.304c-.342-.897-.513-1.89-.513-2.98 0-1.1.177-2.117.534-3.044.36-.921.87-1.72 1.53-2.388a6.973 6.973 0 0 1 2.376-1.557c.927-.372 1.953-.561 3.087-.561.729 0 1.449.063 2.15.186.703.12 1.306.303 1.81.546l-.174.798zM113.698 19.264h6.498l-3.249-8.433-3.249 8.433zm9.25 4.686h-.946l-1.506-3.87h-7.119l-1.485 3.87h-.948l5.661-14.325h.684l5.658 14.325zM132.955 20.146l5.505-10.52h.798l1.03 14.327h-.922l-.843-12.714-5.136 9.918h-.864l-5.139-9.918-.84 12.714h-.924l1.032-14.328h.795zM144.082 23.952V9.627h7.359v.816h-6.414v5.745h6.153v.819h-6.153v6.129h6.477v.816z"/>
        <g transform="translate(153 8)">
            <mask id="b" fill="#fff">
                <use xlink:href="#a"/>
            </mask>
            <path fill="#231F20" d="M9.61 12.36c0 .561-.112 1.074-.334 1.551a3.664 3.664 0 0 1-.939 1.224 4.24 4.24 0 0 1-1.44.795 5.831 5.831 0 0 1-1.85.28 9.63 9.63 0 0 1-2.032-.226c-.71-.15-1.323-.345-1.842-.59l.24-.796a10.3 10.3 0 0 0 1.743.591 8.037 8.037 0 0 0 1.848.204c1.12 0 2.007-.267 2.667-.807.66-.537.99-1.272.99-2.205 0-.5-.102-.933-.3-1.29a3.61 3.61 0 0 0-.786-.957 5.505 5.505 0 0 0-1.11-.74 36.913 36.913 0 0 0-1.29-.646 31.378 31.378 0 0 1-1.473-.765 5.717 5.717 0 0 1-1.158-.837 3.367 3.367 0 0 1-.753-1.044c-.183-.39-.27-.846-.27-1.377 0-.573.111-1.07.333-1.497.22-.423.52-.77.891-1.044.375-.27.804-.474 1.293-.612a5.68 5.68 0 0 1 1.524-.204c.648 0 1.266.072 1.86.216a7.213 7.213 0 0 1 1.605.582l-.216.816a9.26 9.26 0 0 0-1.58-.579 6.24 6.24 0 0 0-1.624-.219c-.903 0-1.653.207-2.247.615-.597.408-.894 1.035-.894 1.881 0 .417.063.771.183 1.065.123.297.303.558.55.798.242.237.548.462.914.675.363.216.798.441 1.302.67.456.212.933.452 1.428.72a7.46 7.46 0 0 1 1.356.926c.408.351.744.756 1.011 1.212.264.46.4 1 .4 1.614" mask="url(#b)"/>
        </g>
    </g>
</svg>
